<svg xmlns="http://www.w3.org/2000/svg" viewBox="0 0 640 256" width="160" height="64"><path fill="currentColor" d="M236.5,19.5v217h-217v-217H236.5 M240.5,15.5h-225v225h225V15.5L240.5,15.5zM231.5,24.5v207h-207v-207H231.5 M233.5,22.5h-2h-207h-2v2v207v2h2h207h2v-2v-207V22.5L233.5,22.5zM133.63,185.77h-16.02l-25.78-42.89c-0.78-1.3-1.64-3.15-2.58-5.55h-0.31c-0.52,1.2-1.41,3.05-2.66,5.55l-26.56,42.89H43.63l37.5-56.33L46.6,73.74h16.09l22.89,39.38c1.51,2.6,2.84,5.21,3.98,7.81h0.31c1.67-3.44,3.12-6.15,4.38-8.12l23.83-39.06h15.08l-35.23,55.55L133.63,185.77zM212.39,185.77h-12.81v-13.59h-0.31c-5.94,10.31-15.1,15.47-27.5,15.47c-10.05,0-18.09-3.58-24.1-10.74c-6.02-7.16-9.02-16.91-9.02-29.26c0-13.23,3.33-23.83,10-31.8c6.67-7.97,15.55-11.95,26.64-11.95c10.99,0,18.98,4.32,23.98,12.97h0.31V67.34h12.81V185.77z M199.58,149.6v-11.8c0-6.46-2.14-11.93-6.41-16.41c-4.27-4.48-9.69-6.72-16.25-6.72c-7.81,0-13.96,2.87-18.44,8.59c-4.48,5.73-6.72,13.65-6.72,23.75c0,9.22,2.15,16.5,6.45,21.84c4.3,5.34,10.06,8.01,17.3,8.01c7.13,0,12.93-2.58,17.38-7.73S199.58,157.47,199.58,149.6zM267.49,85.46c-2.29,0-4.25-0.78-5.86-2.34c-1.62-1.56-2.42-3.54-2.42-5.94c0-2.4,0.81-4.39,2.42-5.98c1.61-1.59,3.57-2.38,5.86-2.38c2.34,0,4.34,0.79,5.98,2.38c1.64,1.59,2.46,3.58,2.46,5.98c0,2.29-0.82,4.25-2.46,5.86C271.83,84.65,269.83,85.46,267.49,85.46z M273.74,185.77h-12.81v-80h12.81V185.77zM312.96,106.16c4.74-1.77,10.39-2.66,16.95-2.66c0.1,0,0.21,0,0.31,0c8.7,0,15.62,1.99,20.78,5.98s7.73,9.52,7.73,16.6c0,4.38-1.55,8.24-4.65,11.6c-3.1,3.36-6.68,5.51-10.74,6.45c5.42,1.09,9.8,3.41,13.16,6.95c3.36,3.54,5.04,7.76,5.04,12.66c0,7.14-2.73,12.87-8.2,17.19c-4.17,3.33-10.55,5.47-19.14,6.41c-2.24,0.26-4.61,0.39-7.11,0.39c-0.21,0-0.42,0-0.62,0c-9.53,0-17.02-2.16-22.46-6.48c-5.44-4.32-8.16-10.05-8.16-17.19c0-4.9,1.68-9.11,5.04-12.66c3.36-3.54,7.75-5.86,13.16-6.95c-4.06-0.94-7.64-3.09-10.74-6.45c-3.1-3.36-4.65-7.23-4.65-11.6v-0.08c0-7.24,2.58-12.76,7.73-16.56C308.53,108.14,310.72,106.94,312.96,106.16z M308.19,163.43c0,1.93,0.49,3.75,1.48,5.47c2.71,4.84,9.04,7.27,18.98,7.27c9.95,0,16.3-2.5,19.06-7.5c0.99-1.77,1.48-4,1.48-6.68c0-2.68-1.13-5.06-3.4-7.15c-2.27-2.08-4.74-3.38-7.42-3.91c-2.68-0.52-5.74-0.78-9.18-0.78c-5.31,0-9.69,0.73-13.12,2.19c-3.02,1.3-5.18,3.18-6.48,5.62C308.66,159.68,308.19,161.5,308.19,163.43z M313.19,119.6c-1.46,1.88-2.19,3.96-2.19,6.25c0,4.01,2.29,7.45,6.88,10.31c2.4,1.51,5.94,2.27,10.62,2.27s8.31-0.81,10.86-2.42c4.69-3.02,7.03-6.48,7.03-10.39c0-2.34-0.7-4.4-2.11-6.17c-2.76-3.44-7.79-5.16-15.08-5.16C321.34,114.29,316.01,116.06,313.19,119.6zM395.54,185.77h-13.12V73.74h13.12V185.77zM539.21,185.77h-13.05v-75.16c0-2.97,0.09-6.28,0.27-9.92c0.18-3.65,0.46-7.6,0.82-11.88h-0.31c-0.62,2.5-1.21,4.66-1.76,6.48c-0.55,1.82-1.08,3.28-1.6,4.38l-38.28,86.09h-6.41l-38.2-85.47c-0.52-1.25-1.07-2.84-1.64-4.77c-0.57-1.93-1.15-4.17-1.72-6.72h-0.31c0.21,2.24,0.36,5.18,0.47,8.83c0.1,3.65,0.16,8.02,0.16,13.12v75h-12.66V73.74h17.34l34.38,78.13c1.35,2.97,2.46,5.57,3.32,7.81c0.86,2.24,1.47,4.12,1.84,5.62h0.47c1.15-3.07,2.16-5.75,3.05-8.05c0.88-2.29,1.67-4.19,2.34-5.7l35.08-77.81h16.41V185.77zM628.04,185.77h-59.38V73.74h56.88v11.88h-43.75v37.27h40.47v11.8h-40.47v39.22h46.25V185.77z"/></svg>